<?xml version="1.0" encoding="UTF-8"?>
<svg width="609px" height="163px" viewBox="0 0 609 163" version="1.1" xmlns="http://www.w3.org/2000/svg" xmlns:xlink="http://www.w3.org/1999/xlink">
    <title>wordmark</title>
    <g id="wordmark" stroke="none" stroke-width="1" fill="none" fill-rule="evenodd">
        <g id="PubKey" transform="translate(0.000000, 0.000000)" fill="#1C7ED6" fill-rule="nonzero">
            <path d="M20.7825909,86.214876 L20.7825909,126.050767 C19.7562901,126.435655 18.4092703,126.788469 16.7415316,127.109209 C15.0737928,127.429949 13.2136226,127.590319 11.161021,127.590319 C7.1841055,127.590319 4.32970644,126.852617 2.59782386,125.377214 C0.865941288,123.90181 0,121.432113 0,117.968123 L0,18.6670602 C0,16.4860291 0.609366092,14.7861078 1.82809827,13.5672963 C3.04683046,12.3484848 4.74664113,11.4183392 6.9275303,10.7768595 C10.9044458,9.36560409 15.651087,8.40338449 21.1674537,7.89020071 C26.6838204,7.37701692 31.8794682,7.12042503 36.7543969,7.12042503 C53.4317847,7.12042503 65.779466,10.6485636 73.7974409,17.7048406 C81.8154158,24.7611177 85.8244032,34.3191657 85.8244032,46.3789847 C85.8244032,58.4388036 81.8154158,68.0930736 73.7974409,75.3417946 C65.779466,82.5905155 53.8166475,86.214876 37.9089853,86.214876 L20.7825909,86.214876 Z M36.5619655,69.472255 C45.4138098,69.472255 52.373412,67.5478158 57.4407721,63.6989374 C62.5081322,59.850059 65.0418123,54.0767414 65.0418123,46.3789847 C65.0418123,38.6812279 62.6364198,33.0362062 57.8256349,29.4439197 C53.01485,25.8516332 46.1193916,24.05549 37.1392597,24.05549 C34.1886449,24.05549 31.2701021,24.1837859 28.3836311,24.4403778 C25.4971601,24.6969697 22.8993363,25.0177096 20.5901595,25.4025974 L20.5901595,69.472255 L36.5619655,69.472255 Z" id="Shape"></path>
            <path d="M107.37672,36.5643447 C108.274733,36.3077529 109.557609,36.019087 111.225348,35.6983471 C112.893086,35.3776072 114.689113,35.2172373 116.613427,35.2172373 C120.333767,35.2172373 123.059879,35.922865 124.791761,37.3341204 C126.523644,38.7453758 127.389585,41.1829988 127.389585,44.6469894 L127.389585,92.1806375 C127.389585,99.6218024 129.345971,104.91401 133.258743,108.057261 C137.171514,111.200512 142.591665,112.772137 149.519196,112.772137 C154.009262,112.772137 157.793746,112.323101 160.872648,111.42503 C163.951551,110.526958 166.389015,109.564738 168.185041,108.538371 L168.185041,36.5643447 C169.211342,36.3077529 170.52629,36.019087 172.129885,35.6983471 C173.73348,35.3776072 175.497434,35.2172373 177.421748,35.2172373 C181.142089,35.2172373 183.900272,35.922865 185.696298,37.3341204 C187.492325,38.7453758 188.390338,41.1829988 188.390338,44.6469894 L188.390338,109.50059 C188.390338,112.323101 187.941331,114.632428 187.043318,116.428571 C186.145305,118.224715 184.349279,119.95671 181.655239,121.624557 C178.319762,123.548996 173.925911,125.280992 168.473688,126.820543 C163.021465,128.360094 156.639157,129.12987 149.326764,129.12987 C136.113142,129.12987 125.818062,126.211137 118.441525,120.373672 C111.064988,114.536206 107.37672,105.266824 107.37672,92.5655254 L107.37672,36.5643447 Z" id="Path"></path>
            <path d="M257.858072,33.677686 C263.88759,33.677686 269.532244,34.6719795 274.792035,36.6605667 C280.051827,38.6491539 284.606037,41.5999606 288.454665,45.512987 C292.303293,49.4260134 295.318051,54.3654073 297.49894,60.3311688 C299.679829,66.2969303 300.770274,73.2569854 300.770274,81.2113341 C300.770274,89.2939787 299.647758,96.3502558 297.402725,102.380165 C295.157692,108.410075 291.982574,113.381543 287.87737,117.294569 C283.772167,121.207595 278.865167,124.158402 273.156369,126.146989 C267.44757,128.135577 261.129406,129.12987 254.201876,129.12987 C247.274346,129.12987 241.148613,128.295946 235.824677,126.628099 C230.500742,124.960252 226.171036,123.035813 222.835558,120.854782 C220.141519,119.058638 218.217205,117.262495 217.062616,115.466352 C215.908028,113.670209 215.330734,111.360882 215.330734,108.538371 L215.330734,1.53955136 C216.228747,1.28295946 217.511623,0.962219599 219.179362,0.577331759 C220.8471,0.19244392 222.643127,0 224.567441,0 C228.287781,0 231.013893,0.705627706 232.745775,2.11688312 C234.477658,3.52813853 235.343599,5.90161354 235.343599,9.23730815 L235.343599,39.6434475 C238.165926,38.1038961 241.43726,36.7247147 245.1576,35.5059032 C248.877941,34.2870917 253.111431,33.677686 257.858072,33.677686 Z M254.586739,49.8429752 C250.481536,49.8429752 246.825339,50.5165289 243.618149,51.8636364 C240.410959,53.2107438 237.652776,54.7823691 235.343599,56.5785124 L235.343599,107.768595 C237.139625,109.051555 239.641233,110.206218 242.848423,111.232586 C246.055613,112.258953 249.775954,112.772137 254.009444,112.772137 C261.834988,112.772137 268.185224,110.206218 273.060153,105.07438 C277.935082,99.9425423 280.372546,91.9881936 280.372546,81.2113341 C280.372546,70.3061787 277.967153,62.35183 273.156369,57.3482881 C268.345584,52.3447462 262.155707,49.8429752 254.586739,49.8429752 Z" id="Shape"></path>
            <path d="M345.991652,73.7060213 L345.991652,126.243211 C344.965352,126.499803 343.618332,126.820543 341.950593,127.205431 C340.282854,127.590319 338.422684,127.782763 336.370083,127.782763 C332.393167,127.782763 329.538768,127.045061 327.806885,125.569658 C326.075003,124.094254 325.209062,121.624557 325.209062,118.160567 L325.209062,9.62219599 C326.235362,9.36560409 327.614454,9.07693821 329.346337,8.75619835 C331.078219,8.43545848 332.906317,8.27508855 334.830631,8.27508855 C338.550972,8.27508855 341.341227,8.98071625 343.201397,10.3919717 C345.061567,11.8032271 345.991652,14.304998 345.991652,17.8972845 L345.991652,61.3896104 L395.446522,8.65997639 C400.32145,8.78827233 403.849359,9.84671389 406.030248,11.8353011 C408.211138,13.8238882 409.301582,16.1652893 409.301582,18.8595041 C409.301582,21.0405352 408.724288,23.0611964 407.5697,24.9214876 C406.415111,26.7817788 404.747372,28.80244 402.566483,30.9834711 L366.004518,67.162928 C376.652388,78.0680834 385.985311,87.7223534 394.003286,96.1257379 C402.021261,104.529122 408.916719,111.360882 414.689661,116.621015 C414.433086,120.213302 413.246426,123.003739 411.12968,124.992326 C409.012935,126.980913 406.479255,127.975207 403.52864,127.975207 C400.449738,127.975207 397.851914,127.141283 395.735169,125.473436 C393.618423,123.805588 391.469606,121.881149 389.288717,119.700118 L345.991652,73.7060213 Z" id="Path"></path>
            <path d="M445.671116,91.6033058 C447.467143,98.9161747 450.96298,104.336678 456.158627,107.864817 C461.354275,111.392956 467.993158,113.157025 476.075277,113.157025 C481.463356,113.157025 486.402429,112.323101 490.892495,110.655254 C495.382561,108.987407 498.974613,107.191263 501.668653,105.266824 C505.260706,107.319559 507.056732,110.206218 507.056732,113.9268 C507.056732,116.107832 506.222863,118.128493 504.555124,119.988784 C502.887385,121.849075 500.61028,123.452774 497.723809,124.799882 C494.837338,126.146989 491.437717,127.205431 487.524945,127.975207 C483.612173,128.744982 479.410755,129.12987 474.920689,129.12987 C467.480008,129.12987 460.712837,128.103503 454.619176,126.050767 C448.525515,123.998032 443.297796,120.91893 438.936017,116.813459 C434.574239,112.707989 431.20669,107.640299 428.833369,101.61039 C426.460048,95.5804801 425.273388,88.588351 425.273388,80.6340024 C425.273388,72.9362456 426.427977,66.1686344 428.737153,60.3311688 C431.04633,54.4937033 434.189376,49.6184573 438.166292,45.7054309 C442.143207,41.7924046 446.825705,38.8095238 452.213784,36.7567887 C457.601863,34.7040535 463.374805,33.677686 469.53261,33.677686 C475.690414,33.677686 481.302997,34.6719795 486.370357,36.6605667 C491.437717,38.6491539 495.799495,41.4075167 499.455692,44.9356553 C503.111888,48.4637938 505.934216,52.665486 507.922673,57.540732 C509.911131,62.415978 510.90536,67.7402597 510.90536,73.5135773 C510.90536,76.720976 510.135634,79.062377 508.596183,80.5377804 C507.056732,82.0131838 504.811699,83.0074774 501.861084,83.5206612 L445.671116,91.6033058 Z M469.53261,49.2656434 C462.476792,49.2656434 456.607634,51.6391185 451.925137,56.3860685 C447.242639,61.1330185 444.773103,67.9327037 444.516528,76.785124 L491.854652,70.0495868 C491.341501,64.2762692 489.224756,59.3689492 485.504415,55.3276269 C481.784075,51.2863046 476.46014,49.2656434 469.53261,49.2656434 Z" id="Shape"></path>
            <path d="M547.852188,105.459268 C544.644998,99.1727666 540.732227,90.2561983 536.113873,78.7095632 C531.495519,67.162928 527.005454,54.0767414 522.643675,39.4510035 C523.798264,38.0397481 525.337715,36.8530106 527.262029,35.890791 C529.186343,34.9285714 531.238944,34.4474616 533.419833,34.4474616 C536.242161,34.4474616 538.551337,35.1210153 540.347364,36.4681228 C542.14339,37.8152302 543.618697,40.1566312 544.773286,43.4923259 C548.237051,53.8842975 551.829104,64.1158993 555.549444,74.1871311 C559.269784,84.2583628 563.374988,94.6824085 567.865054,105.459268 L568.634779,105.459268 C570.559093,101.353798 572.515479,96.5426997 574.503937,91.025974 C576.492395,85.5092483 578.44878,79.6717828 580.373094,73.5135773 C582.297408,67.3553719 584.093435,61.1009445 585.761173,54.7502952 C587.428912,48.3996458 588.90422,42.3376623 590.187096,36.5643447 C591.469972,35.922865 592.784919,35.4096812 594.131939,35.0247934 C595.478959,34.6399055 597.050482,34.4474616 598.846509,34.4474616 C601.668836,34.4474616 604.042156,35.1210153 605.96647,36.4681228 C607.890784,37.8152302 608.852941,39.9000394 608.852941,42.7225502 C608.852941,46.0582448 607.987,51.1580087 606.255117,58.0218418 C604.523235,64.8856749 602.24613,72.4551358 599.423803,80.7302243 C596.601476,89.0053129 593.394286,97.3766234 589.802233,105.844156 C586.21018,114.311688 582.618127,121.817001 579.026075,128.360094 C572.611695,139.650138 566.806681,148.245966 561.611033,154.14758 C556.415385,160.049193 551.508385,163 546.890031,163 C543.297978,163 540.443579,162.005706 538.326834,160.017119 C536.210089,158.028532 534.895141,155.558835 534.38199,152.608028 C536.434592,150.811885 538.679625,148.630854 541.117089,146.064935 C543.554554,143.499016 545.992018,140.740653 548.429482,137.789847 C550.866947,134.83904 553.176124,131.792011 555.357013,128.64876 C557.537902,125.50551 559.398072,122.458481 560.937523,119.507674 C558.756634,118.866194 556.639889,117.615309 554.587287,115.755018 C552.534686,113.894726 550.289653,110.46281 547.852188,105.459268 Z" id="Path"></path>
        </g>
    </g>
</svg>